<?xml version="1.0" standalone="no"?>
<!DOCTYPE svg PUBLIC "-//W3C//DTD SVG 20010904//EN"
 "http://www.w3.org/TR/2001/REC-SVG-20010904/DTD/svg10.dtd">
<svg version="1.0" xmlns="http://www.w3.org/2000/svg"
 width="1800.000000pt" height="1288.000000pt" viewBox="0 0 1800.000000 1288.000000"
 preserveAspectRatio="xMidYMid meet">

<g transform="translate(0.000000,1288.000000) scale(0.100000,-0.100000)"
fill="#c72c2c" stroke="none">
<path d="M931 12669 c-147 -19 -300 -86 -424 -186 -117 -94 -204 -221 -261
-382 l-31 -86 0 -5570 0 -5570 23 -80 c46 -157 150 -313 275 -411 80 -63 221
-134 317 -161 62 -17 380 -18 8175 -18 7795 0 8113 1 8175 18 163 46 338 158
438 281 59 72 132 211 159 301 17 57 18 308 21 5595 3 6117 8 5605 -59 5766
-31 76 -109 196 -162 252 -92 98 -242 186 -387 229 l-95 28 -8050 1 c-4427 1
-8079 -2 -8114 -7z m2729 -584 c183 -28 331 -76 486 -161 81 -43 144 -101 144
-130 0 -45 -105 -156 -278 -291 -75 -59 -86 -65 -117 -59 -39 8 -66 45 -83
116 -30 125 -121 250 -225 309 -123 70 -284 98 -453 81 -164 -17 -318 -98
-385 -201 -74 -115 -42 -248 91 -379 59 -58 313 -237 455 -320 63 -37 274
-179 340 -229 139 -105 232 -200 276 -281 l16 -30 48 61 c27 33 74 81 104 107
31 25 58 49 61 52 14 17 215 142 280 175 160 80 373 144 570 169 409 52 730
13 796 -97 15 -26 18 -50 17 -127 -3 -180 -63 -378 -188 -627 l-82 -162 56
-24 c102 -45 231 -59 330 -36 60 13 171 63 250 110 92 56 296 208 370 276 l65
59 -61 22 c-77 28 -149 90 -164 143 -15 49 5 131 53 215 41 74 143 174 211
207 153 75 339 85 434 23 78 -50 70 -160 -26 -342 l-40 -76 57 7 c147 17 344
96 472 191 36 26 111 94 166 151 l102 104 121 -3 120 -3 -130 -230 c-194 -343
-307 -555 -341 -642 -55 -140 -40 -234 45 -280 52 -28 196 -23 274 9 97 40
462 264 568 350 101 81 175 145 175 152 0 2 -20 11 -43 19 -62 21 -121 61
-153 103 -24 30 -28 45 -27 92 3 128 146 318 287 381 140 63 298 75 393 30 98
-47 103 -137 16 -317 -61 -127 -61 -115 3 -107 69 8 203 46 278 79 109 48 228
136 344 253 l113 114 119 -3 120 -3 -106 -190 c-58 -104 -120 -217 -139 -250
-202 -364 -246 -460 -252 -555 -8 -127 49 -175 205 -175 92 1 93 1 205 58 61
31 166 91 231 132 l120 74 37 106 c39 110 52 136 262 501 l127 220 242 28
c134 15 313 35 398 45 85 10 156 17 158 16 1 -1 -29 -51 -68 -111 -91 -141
-157 -244 -254 -396 -90 -140 -185 -322 -216 -418 -12 -36 -24 -99 -27 -140
-6 -94 11 -140 61 -164 42 -20 144 -21 207 -2 214 65 477 308 640 591 79 137
163 285 237 421 l72 131 273 32 c149 18 316 38 370 45 53 7 99 10 102 8 3 -3
-34 -80 -81 -171 -48 -91 -121 -233 -164 -316 -43 -82 -110 -213 -150 -290
-236 -456 -300 -585 -292 -585 46 0 405 134 585 218 98 47 316 167 327 181 3
3 24 19 48 34 52 34 54 31 50 -94 l-3 -94 -160 -80 c-88 -44 -221 -105 -295
-134 -129 -51 -531 -188 -616 -210 -32 -9 -45 -19 -64 -53 -38 -70 -144 -228
-199 -298 -266 -339 -646 -524 -1041 -508 -92 4 -127 10 -177 30 -147 60 -212
174 -168 295 63 169 280 319 665 458 80 28 182 63 227 76 l82 24 72 165 c40
91 77 171 82 178 22 29 -28 0 -203 -117 -103 -70 -350 -173 -482 -202 -105
-23 -273 -28 -352 -10 -161 38 -285 155 -318 302 -6 30 -12 55 -13 57 -1 1
-62 -32 -136 -74 -268 -152 -483 -248 -664 -295 -130 -34 -303 -34 -394 0 -77
29 -169 111 -202 178 -73 151 25 376 290 667 44 49 79 91 78 93 -2 2 -26 -4
-53 -12 -69 -20 -228 -53 -298 -61 -55 -6 -62 -10 -125 -72 -171 -168 -320
-283 -531 -411 -540 -327 -897 -452 -1142 -400 -110 24 -211 98 -256 188 -78
159 10 372 277 671 42 47 80 89 86 93 11 9 8 9 -120 -24 -44 -12 -128 -29
-188 -39 l-107 -17 -83 -80 c-111 -108 -145 -138 -262 -224 -155 -114 -232
-162 -336 -206 -219 -94 -424 -107 -619 -39 -58 20 -112 39 -121 42 -10 3 -39
-16 -80 -53 -159 -144 -358 -245 -574 -293 -140 -31 -361 -31 -494 -1 -220 50
-401 198 -452 369 l-12 43 -36 -34 c-205 -191 -512 -325 -876 -383 -130 -21
-446 -29 -590 -15 -139 14 -281 42 -386 76 -212 69 -405 180 -444 255 -14 27
-14 33 1 63 24 46 138 178 247 285 84 82 98 92 131 92 83 0 129 -47 151 -154
32 -160 90 -285 158 -342 41 -35 155 -89 232 -110 93 -25 314 -30 428 -10 190
35 334 101 433 200 74 74 96 120 97 201 0 63 -20 116 -69 180 -46 61 -215 183
-513 370 -363 229 -527 396 -585 597 -60 209 53 434 309 613 147 102 271 154
465 195 198 41 474 47 690 15z m10044 -2060 c61 -30 138 -61 171 -70 72 -18
236 -19 353 -1 95 14 94 15 41 -76 -16 -27 -29 -51 -29 -54 0 -3 -23 -40 -52
-81 -98 -142 -190 -185 -393 -185 -146 -1 -266 21 -392 69 l-93 35 20 28 c10
15 26 33 35 40 37 31 121 163 189 298 14 28 29 52 33 52 3 0 56 -25 117 -55z
m1115 -2 c63 -31 141 -62 175 -69 79 -17 250 -17 346 1 41 7 76 12 78 10 2 -2
-13 -35 -32 -74 -87 -173 -168 -265 -262 -301 -158 -59 -412 -42 -620 40 -43
18 -80 33 -82 35 -2 1 9 16 24 31 59 63 143 187 193 283 28 55 55 101 60 101
4 0 58 -25 120 -57z m1105 2 c61 -30 139 -61 172 -70 72 -18 225 -20 324 -4
38 6 78 9 89 7 19 -3 19 -6 -10 -63 -87 -171 -171 -268 -264 -303 -158 -61
-413 -44 -625 39 -44 18 -80 36 -80 40 0 5 3 9 8 9 23 0 160 197 221 318 23
45 44 82 48 82 3 0 56 -25 117 -55z m1521 -5255 l0 -3635 -23 -75 c-29 -93
-53 -137 -118 -220 -136 -173 -334 -276 -579 -301 -66 -6 -2742 -9 -7800 -6
l-7700 3 -88 26 c-233 70 -413 208 -506 388 -78 151 -71 -217 -71 3833 l0
3627 8443 -2 8442 -3 0 -3635z"/>
<path d="M5086 10954 c-328 -65 -565 -386 -566 -768 -1 -174 52 -285 165 -344
45 -24 60 -27 155 -27 101 1 108 2 177 38 66 34 146 92 216 157 l29 27 -50 41
c-98 83 -179 213 -203 329 -15 72 -1 181 33 246 47 94 153 201 271 274 31 20
57 37 57 39 0 10 -223 0 -284 -12z"/>
<path d="M11370 9361 c-369 -121 -590 -276 -590 -413 0 -91 51 -125 174 -115
132 10 249 98 361 272 55 85 151 272 143 280 -1 2 -41 -9 -88 -24z"/>
<path d="M7955 7605 c-180 -39 -315 -129 -416 -276 -119 -175 -174 -441 -151
-739 14 -179 38 -276 102 -405 79 -161 157 -243 307 -320 115 -60 373 -83 535
-50 213 45 396 203 482 417 85 215 101 609 35 851 -81 291 -283 482 -561 527
-86 14 -260 11 -333 -5z m302 -431 c123 -59 182 -209 183 -460 0 -210 -41
-364 -115 -433 -59 -54 -106 -73 -186 -74 -124 0 -229 82 -269 210 -48 155
-48 440 0 579 64 186 221 258 387 178z"/>
<path d="M3173 7593 l-603 -3 0 -880 0 -880 615 0 615 0 0 200 0 200 -390 0
-390 0 0 170 0 170 350 0 350 0 0 180 0 180 -347 2 -348 3 0 140 0 140 378 3
377 2 0 190 c0 105 -1 189 -2 188 -2 -2 -274 -4 -605 -5z"/>
<path d="M1000 7375 l0 -215 228 -2 227 -3 3 -662 2 -663 225 0 225 0 0 665 0
665 230 0 230 0 0 215 0 215 -685 0 -685 0 0 -215z"/>
<path d="M4040 6710 l0 -880 185 0 185 0 2 653 3 652 28 -135 c15 -74 39 -187
53 -250 38 -177 90 -424 139 -655 24 -116 47 -223 50 -238 l7 -27 168 0 168 0
12 53 c18 86 175 835 221 1062 30 143 51 213 48 155 -1 -14 -1 -305 0 -647 l1
-623 185 0 185 0 0 880 0 880 -297 -2 -297 -3 -13 -55 c-7 -30 -31 -140 -53
-245 -36 -166 -59 -274 -135 -640 -10 -44 -20 -86 -24 -93 -4 -7 -18 37 -31
100 -12 62 -37 181 -55 263 -18 83 -56 268 -86 412 l-54 263 -297 0 -298 0 0
-880z"/>
<path d="M5960 6710 l0 -880 230 0 230 0 0 324 0 323 183 6 c101 3 206 12 237
20 233 59 360 253 360 552 0 157 -35 282 -103 369 -64 82 -124 122 -222 147
-62 17 -116 19 -492 19 l-423 0 0 -880z m721 492 c47 -28 72 -80 77 -157 5
-80 -25 -139 -89 -175 -37 -21 -61 -25 -146 -28 l-103 -4 0 197 0 197 113 -3
c95 -4 118 -8 148 -27z"/>
<path d="M9140 6710 l0 -880 225 0 225 0 2 353 3 352 37 3 c53 4 112 -29 142
-81 21 -35 59 -117 160 -342 8 -16 24 -52 36 -80 13 -27 37 -84 55 -125 l32
-75 489 0 489 0 35 143 34 142 255 -2 254 -3 36 -142 36 -143 237 0 237 0 -9
28 c-10 27 -257 827 -437 1414 l-98 318 -247 0 -246 0 -21 -62 c-11 -35 -115
-369 -231 -743 -117 -374 -230 -740 -253 -812 -22 -73 -44 -130 -48 -125 -4 4
-54 117 -110 252 -142 336 -202 432 -304 484 -27 14 -43 25 -35 26 34 1 139
61 186 106 158 152 197 420 95 639 -63 134 -158 202 -319 225 -37 5 -264 10
-504 10 l-438 0 0 -880z m739 515 c92 -24 127 -79 119 -181 -4 -41 -12 -63
-35 -92 -44 -54 -100 -70 -250 -71 l-123 -1 0 173 c0 96 3 177 7 180 12 13
227 7 282 -8z m1634 -697 l7 -28 -155 0 c-99 0 -155 4 -155 10 0 10 118 488
142 575 11 39 13 31 83 -245 39 -157 75 -297 78 -312z"/>
<path d="M12310 6710 l0 -880 225 0 225 0 0 355 0 355 40 0 c55 0 113 -32 141
-77 13 -21 83 -170 155 -333 l132 -295 257 -3 c205 -2 256 0 252 10 -65 165
-248 566 -281 617 -44 68 -69 91 -139 129 l-38 20 50 17 c114 37 217 144 263
271 26 73 36 261 18 347 -27 132 -116 254 -217 299 -94 41 -173 47 -640 48
l-443 0 0 -880z m775 504 c51 -25 76 -61 82 -117 8 -67 -4 -113 -38 -152 -43
-49 -105 -65 -251 -65 l-118 0 0 173 c0 96 3 177 8 181 4 5 68 6 142 4 108 -3
144 -8 175 -24z"/>
<path d="M13910 6710 l0 -880 225 0 225 0 0 880 0 880 -225 0 -225 0 0 -880z"/>
<path d="M14680 6710 l0 -880 575 0 575 0 0 215 0 215 -347 2 -348 3 -3 663
-2 662 -225 0 -225 0 0 -880z"/>
<path d="M15434 7574 c3 -8 130 -238 281 -510 l275 -494 0 -370 0 -370 225 0
225 0 0 366 0 365 104 187 c57 103 178 320 269 483 91 163 172 310 181 328
l17 31 -251 0 -250 0 -145 -290 c-80 -159 -146 -290 -148 -290 -2 0 -68 131
-147 290 l-144 290 -249 0 c-221 0 -248 -2 -243 -16z"/>
<path d="M5485 5096 c-391 -66 -609 -387 -608 -896 0 -245 32 -393 121 -564
54 -104 166 -224 247 -268 94 -50 218 -80 355 -85 165 -7 261 11 385 71 78 38
103 57 168 126 135 144 206 328 227 590 40 496 -125 858 -450 985 -120 47
-307 64 -445 41z m297 -454 c54 -35 105 -118 129 -209 17 -62 21 -108 21 -228
0 -222 -29 -349 -100 -427 -58 -64 -103 -83 -202 -83 -76 0 -90 3 -132 28
-110 66 -157 185 -165 415 -10 282 37 435 159 513 88 57 195 54 290 -9z"/>
<path d="M10843 5099 c-236 -28 -420 -164 -528 -390 -82 -175 -117 -406 -96
-638 19 -211 54 -331 137 -471 133 -224 350 -329 659 -317 245 9 400 86 536
265 27 36 49 69 49 73 0 5 15 40 34 79 51 104 77 242 83 443 6 188 -5 303 -43
436 -69 238 -230 419 -431 485 -131 42 -248 53 -400 35z m250 -442 c127 -75
177 -205 177 -462 0 -138 -22 -280 -53 -345 -51 -108 -151 -166 -272 -158
-215 14 -316 268 -270 683 3 30 25 105 43 145 25 58 81 117 135 145 45 23 61
26 123 22 55 -3 83 -10 117 -30z"/>
<path d="M6630 4508 c0 -595 2 -632 45 -793 18 -66 71 -169 118 -228 49 -63
141 -133 204 -157 144 -54 466 -65 608 -20 168 53 280 163 354 347 64 161 64
159 68 821 l4 602 -225 0 -226 0 0 -547 c0 -360 -4 -569 -11 -612 -19 -108
-63 -175 -138 -208 -47 -20 -157 -20 -201 -1 -34 16 -121 88 -106 88 5 0 2 10
-6 23 -35 53 -38 108 -38 686 l0 571 -225 0 -225 0 0 -572z"/>
<path d="M8220 4860 l0 -220 230 0 230 0 0 -665 0 -665 225 0 225 0 2 663 3
662 228 3 227 2 0 220 0 220 -685 0 -685 0 0 -220z"/>
<path d="M11970 4195 l0 -885 225 0 225 0 0 360 0 360 285 0 285 0 0 180 0
180 -285 0 -286 0 3 153 3 152 328 3 327 2 0 190 0 190 -555 0 -555 0 0 -885z"/>
<path d="M4660 2584 c-179 -33 -236 -57 -324 -135 -40 -36 -66 -72 -95 -129
-50 -100 -64 -169 -59 -289 3 -86 8 -105 40 -173 79 -167 203 -250 516 -344
183 -56 237 -94 263 -188 22 -81 -42 -182 -130 -206 -53 -14 -148 0 -191 27
-61 39 -120 145 -120 217 -1 49 -2 49 -226 31 -115 -9 -210 -17 -211 -19 -7
-7 21 -154 43 -224 48 -150 137 -260 259 -319 103 -48 196 -66 360 -66 236 -1
366 43 486 162 108 108 157 225 166 396 7 134 -6 206 -51 300 -76 159 -193
233 -518 331 -98 30 -192 61 -208 69 -65 34 -83 114 -40 175 69 97 256 72 316
-42 8 -15 19 -50 25 -78 l11 -51 41 5 c23 3 119 11 213 17 l172 12 -5 41 c-10
73 -62 220 -97 272 -65 96 -161 159 -290 189 -61 15 -299 28 -346 19z"/>
<path d="M11505 2570 c-213 -46 -373 -180 -470 -391 -98 -217 -114 -639 -35
-894 57 -181 183 -359 306 -431 190 -112 545 -120 729 -18 28 15 83 60 122
100 58 57 82 90 118 166 25 52 57 133 70 182 l24 87 -34 15 c-19 8 -37 14 -41
14 -3 0 -20 6 -37 14 -18 8 -88 34 -157 59 l-125 45 -8 -32 c-61 -228 -137
-309 -286 -308 -157 1 -244 101 -273 315 -15 110 -4 364 18 437 49 164 140
248 269 249 103 1 209 -82 241 -189 l17 -57 106 28 c159 42 282 77 287 82 7 7
-25 103 -60 178 -84 183 -214 297 -393 344 -98 26 -283 28 -388 5z"/>
<path d="M5670 1675 l0 -885 613 2 612 3 3 200 2 200 -387 0 -388 0 -3 173 -2
172 350 0 350 0 0 180 0 180 -347 2 -348 3 -3 138 -3 137 381 0 380 0 0 190 0
190 -605 0 -605 0 0 -885z"/>
<path d="M7150 1676 l0 -886 225 0 225 0 0 360 0 360 35 0 c52 0 97 -22 132
-64 17 -21 92 -176 168 -347 l137 -309 254 0 c140 0 254 3 254 6 0 14 -224
524 -254 578 -47 84 -105 147 -161 175 l-48 24 34 12 c157 56 255 165 294 330
20 80 19 242 -1 319 -31 122 -103 220 -198 268 -90 46 -134 50 -628 55 l-468
5 0 -886z m797 492 c31 -20 43 -36 53 -72 25 -90 -5 -183 -70 -216 -49 -25
-162 -42 -250 -38 l-75 3 -3 178 -2 179 153 -4 c147 -3 155 -4 194 -30z"/>
<path d="M8485 2548 c4 -13 459 -1474 515 -1656 l32 -102 243 0 c223 0 244 1
249 18 22 74 443 1437 502 1626 19 60 34 113 34 118 0 4 -103 8 -229 8 l-228
0 -12 -42 c-13 -51 -157 -616 -242 -948 -33 -129 -63 -243 -67 -253 -4 -11
-25 54 -60 190 -29 115 -89 348 -133 518 -43 171 -92 361 -107 422 l-27 113
-237 0 c-186 0 -236 -3 -233 -12z"/>
<path d="M10230 1675 l0 -885 225 0 225 0 0 885 0 885 -225 0 -225 0 0 -885z"/>
<path d="M12580 1675 l0 -885 615 0 615 0 0 200 0 200 -385 0 -385 0 0 175 0
175 350 0 350 0 0 180 0 180 -350 0 -350 0 0 140 0 140 375 0 375 0 0 190 0
190 -605 0 -605 0 0 -885z"/>
</g>
</svg>
